<svg xmlns="http://www.w3.org/2000/svg" xmlns:xlink="http://www.w3.org/1999/xlink" width="215" zoomAndPan="magnify" viewBox="0 0 705 591.000005" height="32" preserveAspectRatio="xMidYMid meet" version="1.0"><defs><g/><clipPath id="2ba9fa54e0"><path d="M 0.59375 0 L 704.402344 0 L 704.402344 590 L 0.59375 590 Z M 0.59375 0 " clip-rule="nonzero"/></clipPath><clipPath id="307f8e614e"><path d="M 35.957031 59 L 372 59 L 372 333 L 35.957031 333 Z M 35.957031 59 " clip-rule="nonzero"/></clipPath><clipPath id="b9c8f4dd74"><path d="M 342 59 L 678.222656 59 L 678.222656 333 L 342 333 Z M 342 59 " clip-rule="nonzero"/></clipPath></defs><g clip-path="url(#2ba9fa54e0)"><path fill="#ffffff" d="M 0.59375 0 L 704.40625 0 L 704.40625 590 L 0.59375 590 Z M 0.59375 0 " fill-opacity="1" fill-rule="nonzero"/><path fill="#ffffff" d="M 0.59375 0 L 704.40625 0 L 704.40625 590 L 0.59375 590 Z M 0.59375 0 " fill-opacity="1" fill-rule="nonzero"/></g><path fill="#022e43" d="M 267.710938 177.015625 C 267.710938 177.554688 267.683594 178.085938 267.632812 178.621094 C 267.578125 179.152344 267.5 179.683594 267.394531 180.207031 C 267.289062 180.734375 267.160156 181.253906 267.003906 181.765625 C 266.847656 182.277344 266.667969 182.78125 266.460938 183.277344 C 266.257812 183.769531 266.027344 184.253906 265.773438 184.726562 C 265.519531 185.199219 265.246094 185.660156 264.945312 186.105469 C 264.648438 186.550781 264.328125 186.980469 263.988281 187.394531 C 263.648438 187.808594 263.285156 188.203125 262.90625 188.582031 C 262.527344 188.960938 262.128906 189.320312 261.714844 189.660156 C 261.300781 190 260.871094 190.320312 260.421875 190.617188 C 259.976562 190.914062 259.515625 191.1875 259.042969 191.441406 C 258.570312 191.695312 258.085938 191.921875 257.589844 192.128906 C 257.089844 192.332031 256.585938 192.511719 256.074219 192.667969 C 255.558594 192.824219 255.039062 192.953125 254.511719 193.058594 C 253.984375 193.164062 253.453125 193.242188 252.921875 193.292969 C 252.386719 193.347656 251.851562 193.375 251.3125 193.375 C 250.777344 193.375 250.242188 193.347656 249.707031 193.292969 C 249.171875 193.242188 248.640625 193.164062 248.113281 193.058594 C 247.585938 192.953125 247.066406 192.824219 246.554688 192.667969 C 246.039062 192.511719 245.535156 192.332031 245.039062 192.128906 C 244.542969 191.921875 244.058594 191.695312 243.582031 191.441406 C 243.109375 191.1875 242.648438 190.914062 242.203125 190.617188 C 241.757812 190.320312 241.328125 190 240.910156 189.660156 C 240.496094 189.320312 240.097656 188.960938 239.71875 188.582031 C 239.339844 188.203125 238.980469 187.808594 238.636719 187.394531 C 238.296875 186.980469 237.976562 186.550781 237.679688 186.105469 C 237.382812 185.660156 237.105469 185.199219 236.851562 184.726562 C 236.597656 184.253906 236.371094 183.769531 236.164062 183.277344 C 235.960938 182.78125 235.777344 182.277344 235.621094 181.765625 C 235.464844 181.253906 235.335938 180.734375 235.230469 180.207031 C 235.125 179.683594 235.046875 179.152344 234.996094 178.621094 C 234.941406 178.085938 234.917969 177.554688 234.917969 177.015625 C 234.917969 176.480469 234.941406 175.949219 234.996094 175.414062 C 235.046875 174.882812 235.125 174.351562 235.230469 173.828125 C 235.335938 173.300781 235.464844 172.78125 235.621094 172.269531 C 235.777344 171.757812 235.960938 171.253906 236.164062 170.757812 C 236.371094 170.261719 236.597656 169.78125 236.851562 169.308594 C 237.105469 168.835938 237.382812 168.375 237.679688 167.929688 C 237.976562 167.484375 238.296875 167.054688 238.636719 166.640625 C 238.980469 166.226562 239.339844 165.832031 239.71875 165.453125 C 240.097656 165.074219 240.496094 164.714844 240.910156 164.375 C 241.328125 164.035156 241.757812 163.714844 242.203125 163.417969 C 242.648438 163.121094 243.109375 162.84375 243.582031 162.59375 C 244.058594 162.339844 244.542969 162.113281 245.039062 161.90625 C 245.535156 161.703125 246.039062 161.523438 246.554688 161.367188 C 247.066406 161.210938 247.585938 161.082031 248.113281 160.976562 C 248.640625 160.871094 249.171875 160.792969 249.707031 160.742188 C 250.242188 160.6875 250.777344 160.660156 251.3125 160.660156 C 251.851562 160.660156 252.386719 160.6875 252.921875 160.742188 C 253.453125 160.792969 253.984375 160.871094 254.511719 160.976562 C 255.039062 161.082031 255.558594 161.210938 256.074219 161.367188 C 256.585938 161.523438 257.089844 161.703125 257.589844 161.90625 C 258.085938 162.113281 258.570312 162.339844 259.042969 162.59375 C 259.515625 162.84375 259.976562 163.121094 260.421875 163.417969 C 260.871094 163.714844 261.300781 164.035156 261.714844 164.375 C 262.128906 164.714844 262.527344 165.074219 262.90625 165.453125 C 263.285156 165.832031 263.648438 166.226562 263.988281 166.640625 C 264.328125 167.054688 264.648438 167.484375 264.945312 167.929688 C 265.246094 168.375 265.519531 168.835938 265.773438 169.308594 C 266.027344 169.78125 266.257812 170.261719 266.460938 170.757812 C 266.667969 171.253906 266.847656 171.757812 267.003906 172.269531 C 267.160156 172.78125 267.289062 173.300781 267.394531 173.828125 C 267.5 174.351562 267.578125 174.882812 267.632812 175.414062 C 267.683594 175.949219 267.710938 176.480469 267.710938 177.015625 Z M 267.710938 177.015625 " fill-opacity="1" fill-rule="nonzero"/><path fill="#022e43" d="M 199.476562 160.660156 C 208.53125 160.660156 215.875 167.984375 215.875 177.019531 C 215.875 186.050781 208.53125 193.375 199.476562 193.375 C 190.421875 193.375 183.078125 186.050781 183.078125 177.019531 C 183.078125 167.984375 190.421875 160.660156 199.476562 160.660156 Z M 199.476562 160.660156 " fill-opacity="1" fill-rule="nonzero"/><path fill="#022e43" d="M 164.035156 177.015625 C 164.035156 177.554688 164.011719 178.085938 163.957031 178.621094 C 163.90625 179.152344 163.824219 179.683594 163.722656 180.207031 C 163.617188 180.734375 163.484375 181.253906 163.332031 181.765625 C 163.175781 182.277344 162.992188 182.78125 162.789062 183.277344 C 162.582031 183.769531 162.351562 184.253906 162.101562 184.726562 C 161.847656 185.199219 161.570312 185.660156 161.273438 186.105469 C 160.972656 186.550781 160.65625 186.980469 160.3125 187.394531 C 159.972656 187.808594 159.613281 188.203125 159.234375 188.582031 C 158.855469 188.960938 158.457031 189.320312 158.042969 189.660156 C 157.625 190 157.195312 190.320312 156.75 190.617188 C 156.300781 190.914062 155.84375 191.1875 155.367188 191.441406 C 154.894531 191.695312 154.410156 191.921875 153.914062 192.128906 C 153.417969 192.332031 152.914062 192.511719 152.398438 192.667969 C 151.886719 192.824219 151.363281 192.953125 150.839844 193.058594 C 150.3125 193.164062 149.78125 193.242188 149.246094 193.292969 C 148.710938 193.347656 148.175781 193.375 147.640625 193.375 C 147.101562 193.375 146.566406 193.347656 146.03125 193.292969 C 145.496094 193.242188 144.96875 193.164062 144.441406 193.058594 C 143.914062 192.953125 143.394531 192.824219 142.878906 192.667969 C 142.367188 192.511719 141.859375 192.332031 141.363281 192.128906 C 140.867188 191.921875 140.382812 191.695312 139.910156 191.441406 C 139.4375 191.1875 138.976562 190.914062 138.53125 190.617188 C 138.082031 190.320312 137.652344 190 137.238281 189.660156 C 136.824219 189.320312 136.425781 188.960938 136.046875 188.582031 C 135.664062 188.203125 135.304688 187.808594 134.964844 187.394531 C 134.625 186.980469 134.304688 186.550781 134.007812 186.105469 C 133.707031 185.660156 133.433594 185.199219 133.179688 184.726562 C 132.925781 184.253906 132.695312 183.769531 132.492188 183.277344 C 132.285156 182.78125 132.105469 182.277344 131.949219 181.765625 C 131.792969 181.253906 131.664062 180.734375 131.558594 180.207031 C 131.453125 179.683594 131.375 179.152344 131.320312 178.621094 C 131.269531 178.085938 131.242188 177.554688 131.242188 177.015625 C 131.242188 176.480469 131.269531 175.949219 131.320312 175.414062 C 131.375 174.882812 131.453125 174.351562 131.558594 173.828125 C 131.664062 173.300781 131.792969 172.78125 131.949219 172.269531 C 132.105469 171.757812 132.285156 171.253906 132.492188 170.757812 C 132.695312 170.261719 132.925781 169.78125 133.179688 169.308594 C 133.433594 168.835938 133.707031 168.375 134.007812 167.929688 C 134.304688 167.484375 134.625 167.054688 134.964844 166.640625 C 135.304688 166.226562 135.664062 165.832031 136.046875 165.453125 C 136.425781 165.074219 136.824219 164.714844 137.238281 164.375 C 137.652344 164.035156 138.082031 163.714844 138.53125 163.417969 C 138.976562 163.121094 139.4375 162.84375 139.910156 162.59375 C 140.382812 162.339844 140.867188 162.113281 141.363281 161.90625 C 141.859375 161.703125 142.367188 161.523438 142.878906 161.367188 C 143.394531 161.210938 143.914062 161.082031 144.441406 160.976562 C 144.96875 160.871094 145.496094 160.792969 146.03125 160.742188 C 146.566406 160.6875 147.101562 160.660156 147.640625 160.660156 C 148.175781 160.660156 148.710938 160.6875 149.246094 160.742188 C 149.78125 160.792969 150.3125 160.871094 150.839844 160.976562 C 151.363281 161.082031 151.886719 161.210938 152.398438 161.367188 C 152.914062 161.523438 153.417969 161.703125 153.914062 161.90625 C 154.410156 162.113281 154.894531 162.339844 155.367188 162.59375 C 155.84375 162.84375 156.300781 163.121094 156.75 163.417969 C 157.195312 163.714844 157.625 164.035156 158.042969 164.375 C 158.457031 164.714844 158.855469 165.074219 159.234375 165.453125 C 159.613281 165.832031 159.972656 166.226562 160.3125 166.640625 C 160.65625 167.054688 160.972656 167.484375 161.273438 167.929688 C 161.570312 168.375 161.847656 168.835938 162.101562 169.308594 C 162.351562 169.78125 162.582031 170.261719 162.789062 170.757812 C 162.992188 171.253906 163.175781 171.757812 163.332031 172.269531 C 163.484375 172.78125 163.617188 173.300781 163.722656 173.828125 C 163.824219 174.351562 163.90625 174.882812 163.957031 175.414062 C 164.011719 175.949219 164.035156 176.480469 164.035156 177.015625 Z M 164.035156 177.015625 " fill-opacity="1" fill-rule="nonzero"/><path fill="#fc0a7a" d="M 566.539062 160.660156 C 575.597656 160.660156 582.9375 167.984375 582.9375 177.019531 C 582.9375 186.050781 575.597656 193.375 566.539062 193.375 C 557.484375 193.375 550.144531 186.050781 550.144531 177.019531 C 550.144531 167.984375 557.484375 160.660156 566.539062 160.660156 Z M 566.539062 160.660156 " fill-opacity="1" fill-rule="nonzero"/><path fill="#fc0a7a" d="M 514.703125 160.660156 C 523.757812 160.660156 531.101562 167.984375 531.101562 177.019531 C 531.101562 186.050781 523.757812 193.375 514.703125 193.375 C 505.648438 193.375 498.304688 186.050781 498.304688 177.019531 C 498.304688 167.984375 505.648438 160.660156 514.703125 160.660156 Z M 514.703125 160.660156 " fill-opacity="1" fill-rule="nonzero"/><path fill="#fc0a7a" d="M 462.867188 160.660156 C 471.921875 160.660156 479.265625 167.984375 479.265625 177.019531 C 479.265625 186.050781 471.921875 193.375 462.867188 193.375 C 453.8125 193.375 446.46875 186.050781 446.46875 177.019531 C 446.46875 167.984375 453.8125 160.660156 462.867188 160.660156 Z M 462.867188 160.660156 " fill-opacity="1" fill-rule="nonzero"/><g clip-path="url(#307f8e614e)"><path fill="#fc0a7a" d="M 357.089844 127.214844 C 348.949219 127.214844 342.347656 133.796875 342.347656 141.917969 L 342.347656 230.234375 C 342.347656 248.828125 327.179688 263.960938 308.539062 263.960938 L 183.863281 263.960938 L 159.9375 289.714844 L 136.019531 263.960938 L 99.25 263.960938 C 80.609375 263.960938 65.441406 248.828125 65.441406 230.234375 L 65.441406 122.511719 C 65.441406 103.914062 80.609375 88.785156 99.25 88.785156 L 312.171875 88.785156 C 316.097656 77.992188 321.839844 68.0625 329.046875 59.378906 L 99.25 59.378906 C 64.351562 59.378906 35.957031 87.699219 35.957031 122.511719 L 35.957031 230.234375 C 35.957031 265.046875 64.351562 293.367188 99.25 293.367188 L 123.140625 293.367188 L 159.9375 332.988281 L 196.738281 293.367188 L 308.539062 293.367188 C 343.4375 293.367188 371.832031 265.046875 371.832031 230.234375 L 371.832031 141.917969 C 371.832031 133.796875 365.230469 127.214844 357.089844 127.214844 Z M 357.089844 127.214844 " fill-opacity="1" fill-rule="nonzero"/></g><g clip-path="url(#b9c8f4dd74)"><path fill="#022e43" d="M 614.929688 59.378906 L 405.640625 59.378906 C 370.742188 59.378906 342.347656 87.699219 342.347656 122.511719 L 342.347656 172.902344 C 342.347656 181.023438 348.949219 187.605469 357.089844 187.605469 C 365.230469 187.605469 371.832031 181.023438 371.832031 172.902344 L 371.832031 122.511719 C 371.832031 103.914062 387 88.785156 405.640625 88.785156 L 614.929688 88.785156 C 633.570312 88.785156 648.742188 103.914062 648.742188 122.511719 L 648.742188 230.234375 C 648.742188 248.828125 633.570312 263.960938 614.929688 263.960938 L 578.160156 263.960938 L 554.238281 289.714844 L 530.320312 263.960938 L 401.984375 263.960938 C 398.058594 274.753906 392.320312 284.679688 385.117188 293.367188 L 517.441406 293.367188 L 554.238281 332.988281 L 591.039062 293.367188 L 614.929688 293.367188 C 649.832031 293.367188 678.222656 265.046875 678.222656 230.234375 L 678.222656 122.511719 C 678.222656 87.699219 649.832031 59.378906 614.929688 59.378906 Z M 614.929688 59.378906 " fill-opacity="1" fill-rule="nonzero"/></g><g fill="#fc0a7a" fill-opacity="1"><g transform="translate(23.022443, 470.833551)"><g><path d="M 65.4375 0 L 59.5625 -15.96875 L 26.0625 -15.96875 L 20.296875 0 L 1.078125 0 L 33.984375 -84.046875 L 51.15625 -84.046875 L 85.140625 0 Z M 42.75 -61.84375 L 31.828125 -31.828125 L 53.796875 -31.828125 Z M 42.75 -61.84375 "/></g></g></g><g fill="#fc0a7a" fill-opacity="1"><g transform="translate(109.230865, 470.833551)"><g><path d="M 62.921875 -84.046875 L 80.6875 -84.046875 L 80.6875 0 L 65.5625 0 L 27.5 -52.46875 L 27.5 0 L 9.609375 0 L 9.609375 -84.046875 L 26.0625 -84.046875 L 62.921875 -32.78125 Z M 62.921875 -84.046875 "/></g></g></g><g fill="#fc0a7a" fill-opacity="1"><g transform="translate(199.521581, 470.833551)"><g><path d="M 67.609375 -84.046875 L 67.609375 -67.125 L 44.1875 -67.125 L 44.1875 0 L 25.9375 0 L 25.9375 -67.125 L 2.640625 -67.125 L 2.640625 -84.046875 Z M 67.609375 -84.046875 "/></g></g></g><g fill="#fc0a7a" fill-opacity="1"><g transform="translate(269.640978, 470.833551)"><g><path d="M 27.859375 -16.9375 L 61.359375 -16.9375 L 61.359375 0 L 9.609375 0 L 9.609375 -84.046875 L 60.03125 -84.046875 L 60.03125 -67.25 L 27.859375 -67.25 L 27.859375 -50.671875 L 56.921875 -50.671875 L 56.921875 -34.21875 L 27.859375 -34.21875 Z M 27.859375 -16.9375 "/></g></g></g><g fill="#fc0a7a" fill-opacity="1"><g transform="translate(336.7587, 470.833551)"><g><path d="M 62.921875 -84.046875 L 80.6875 -84.046875 L 80.6875 0 L 65.5625 0 L 27.5 -52.46875 L 27.5 0 L 9.609375 0 L 9.609375 -84.046875 L 26.0625 -84.046875 L 62.921875 -32.78125 Z M 62.921875 -84.046875 "/></g></g></g><g fill="#fc0a7a" fill-opacity="1"><g transform="translate(427.049416, 470.833551)"><g><path d="M 65.4375 0 L 59.5625 -15.96875 L 26.0625 -15.96875 L 20.296875 0 L 1.078125 0 L 33.984375 -84.046875 L 51.15625 -84.046875 L 85.140625 0 Z M 42.75 -61.84375 L 31.828125 -31.828125 L 53.796875 -31.828125 Z M 42.75 -61.84375 "/></g></g></g><g fill="#fc0a7a" fill-opacity="1"><g transform="translate(513.257838, 470.833551)"><g><path d="M 41.421875 -84.046875 C 47.585938 -84.046875 53.269531 -83.003906 58.46875 -80.921875 C 63.675781 -78.847656 68.179688 -75.925781 71.984375 -72.15625 C 75.785156 -68.394531 78.742188 -63.972656 80.859375 -58.890625 C 82.984375 -53.804688 84.046875 -48.222656 84.046875 -42.140625 C 84.046875 -36.054688 82.984375 -30.453125 80.859375 -25.328125 C 78.742188 -20.210938 75.785156 -15.753906 71.984375 -11.953125 C 68.179688 -8.148438 63.675781 -5.207031 58.46875 -3.125 C 53.269531 -1.039062 47.585938 0 41.421875 0 L 9.609375 0 L 9.609375 -84.046875 Z M 40.953125 -16.9375 C 45.753906 -16.9375 49.992188 -18.015625 53.671875 -20.171875 C 57.359375 -22.335938 60.238281 -25.320312 62.3125 -29.125 C 64.394531 -32.925781 65.4375 -37.265625 65.4375 -42.140625 C 65.4375 -47.023438 64.394531 -51.347656 62.3125 -55.109375 C 60.238281 -58.878906 57.359375 -61.820312 53.671875 -63.9375 C 49.992188 -66.0625 45.753906 -67.125 40.953125 -67.125 L 27.859375 -67.125 L 27.859375 -16.9375 Z M 40.953125 -16.9375 "/></g></g></g><g fill="#fc0a7a" fill-opacity="1"><g transform="translate(602.227816, 470.833551)"><g><path d="M 65.4375 0 L 59.5625 -15.96875 L 26.0625 -15.96875 L 20.296875 0 L 1.078125 0 L 33.984375 -84.046875 L 51.15625 -84.046875 L 85.140625 0 Z M 42.75 -61.84375 L 31.828125 -31.828125 L 53.796875 -31.828125 Z M 42.75 -61.84375 "/></g></g></g></svg>