<svg xmlns="http://www.w3.org/2000/svg" xmlns:xlink="http://www.w3.org/1999/xlink" width="430" zoomAndPan="magnify" viewBox="0 0 322.5 48" height="64" preserveAspectRatio="xMidYMid meet" version="1.0"><defs><g/><clipPath id="9b7f8a6ee5"><path d="M 3.046875 0 L 318.964844 0 L 318.964844 47.019531 L 3.046875 47.019531 Z M 3.046875 0 " clip-rule="nonzero"/></clipPath><clipPath id="d11b74fbe7"><path d="M 47.007812 2.40625 L 99 2.40625 L 99 44.28125 L 47.007812 44.28125 Z M 47.007812 2.40625 " clip-rule="nonzero"/></clipPath><clipPath id="f72e8187de"><path d="M 93 2.40625 L 145.453125 2.40625 L 145.453125 44.28125 L 93 44.28125 Z M 93 2.40625 " clip-rule="nonzero"/></clipPath></defs><g clip-path="url(#9b7f8a6ee5)"><path fill="#ffffff" d="M 3.046875 0 L 318.964844 0 L 318.964844 47.019531 L 3.046875 47.019531 Z M 3.046875 0 " fill-opacity="1" fill-rule="nonzero"/><path fill="#ffffff" d="M 3.046875 0 L 318.964844 0 L 318.964844 47.019531 L 3.046875 47.019531 Z M 3.046875 0 " fill-opacity="1" fill-rule="nonzero"/></g><path fill="#022e43" d="M 82.53125 20.417969 C 82.53125 20.75 82.464844 21.066406 82.339844 21.375 C 82.210938 21.679688 82.027344 21.949219 81.792969 22.183594 C 81.558594 22.417969 81.285156 22.597656 80.976562 22.726562 C 80.671875 22.851562 80.351562 22.914062 80.015625 22.914062 C 79.683594 22.914062 79.363281 22.851562 79.054688 22.726562 C 78.746094 22.597656 78.476562 22.417969 78.238281 22.183594 C 78.003906 21.949219 77.820312 21.679688 77.695312 21.375 C 77.566406 21.066406 77.503906 20.75 77.503906 20.417969 C 77.503906 20.085938 77.566406 19.769531 77.695312 19.460938 C 77.820312 19.15625 78.003906 18.886719 78.238281 18.652344 C 78.476562 18.417969 78.746094 18.238281 79.054688 18.113281 C 79.363281 17.984375 79.683594 17.921875 80.015625 17.921875 C 80.351562 17.921875 80.671875 17.984375 80.976562 18.113281 C 81.285156 18.238281 81.558594 18.417969 81.792969 18.652344 C 82.027344 18.886719 82.210938 19.15625 82.339844 19.460938 C 82.464844 19.769531 82.53125 20.085938 82.53125 20.417969 Z M 82.53125 20.417969 " fill-opacity="1" fill-rule="nonzero"/><path fill="#022e43" d="M 72.070312 17.921875 C 73.457031 17.921875 74.585938 19.039062 74.585938 20.417969 C 74.585938 21.796875 73.457031 22.914062 72.070312 22.914062 C 70.683594 22.914062 69.558594 21.796875 69.558594 20.417969 C 69.558594 19.039062 70.683594 17.921875 72.070312 17.921875 Z M 72.070312 17.921875 " fill-opacity="1" fill-rule="nonzero"/><path fill="#022e43" d="M 66.636719 20.417969 C 66.636719 20.75 66.574219 21.066406 66.445312 21.375 C 66.320312 21.679688 66.136719 21.949219 65.902344 22.183594 C 65.667969 22.417969 65.394531 22.597656 65.085938 22.726562 C 64.777344 22.851562 64.457031 22.914062 64.125 22.914062 C 63.792969 22.914062 63.472656 22.851562 63.164062 22.726562 C 62.855469 22.597656 62.582031 22.417969 62.347656 22.183594 C 62.113281 21.949219 61.929688 21.679688 61.804688 21.375 C 61.675781 21.066406 61.613281 20.75 61.613281 20.417969 C 61.613281 20.085938 61.675781 19.769531 61.804688 19.460938 C 61.929688 19.15625 62.113281 18.886719 62.347656 18.652344 C 62.582031 18.417969 62.855469 18.238281 63.164062 18.113281 C 63.472656 17.984375 63.792969 17.921875 64.125 17.921875 C 64.457031 17.921875 64.777344 17.984375 65.085938 18.113281 C 65.394531 18.238281 65.667969 18.417969 65.902344 18.652344 C 66.136719 18.886719 66.320312 19.15625 66.445312 19.460938 C 66.574219 19.769531 66.636719 20.085938 66.636719 20.417969 Z M 66.636719 20.417969 " fill-opacity="1" fill-rule="nonzero"/><path fill="#fc0a7a" d="M 128.335938 17.921875 C 129.722656 17.921875 130.847656 19.039062 130.847656 20.417969 C 130.847656 21.796875 129.722656 22.914062 128.335938 22.914062 C 126.949219 22.914062 125.824219 21.796875 125.824219 20.417969 C 125.824219 19.039062 126.949219 17.921875 128.335938 17.921875 Z M 128.335938 17.921875 " fill-opacity="1" fill-rule="nonzero"/><path fill="#fc0a7a" d="M 120.390625 17.921875 C 121.777344 17.921875 122.902344 19.039062 122.902344 20.417969 C 122.902344 21.796875 121.777344 22.914062 120.390625 22.914062 C 119 22.914062 117.875 21.796875 117.875 20.417969 C 117.875 19.039062 119 17.921875 120.390625 17.921875 Z M 120.390625 17.921875 " fill-opacity="1" fill-rule="nonzero"/><path fill="#fc0a7a" d="M 112.445312 17.921875 C 113.832031 17.921875 114.957031 19.039062 114.957031 20.417969 C 114.957031 21.796875 113.832031 22.914062 112.445312 22.914062 C 111.054688 22.914062 109.929688 21.796875 109.929688 20.417969 C 109.929688 19.039062 111.054688 17.921875 112.445312 17.921875 Z M 112.445312 17.921875 " fill-opacity="1" fill-rule="nonzero"/><g clip-path="url(#d11b74fbe7)"><path fill="#fc0a7a" d="M 96.230469 12.816406 C 94.980469 12.816406 93.972656 13.820312 93.972656 15.058594 L 93.972656 28.542969 C 93.972656 31.382812 91.644531 33.691406 88.789062 33.691406 L 69.675781 33.691406 L 66.011719 37.621094 L 62.34375 33.691406 L 56.707031 33.691406 C 53.851562 33.691406 51.523438 31.382812 51.523438 28.542969 L 51.523438 12.097656 C 51.523438 9.257812 53.851562 6.949219 56.707031 6.949219 L 89.34375 6.949219 C 89.945312 5.300781 90.828125 3.785156 91.933594 2.460938 L 56.707031 2.460938 C 51.359375 2.460938 47.007812 6.785156 47.007812 12.097656 L 47.007812 28.542969 C 47.007812 33.855469 51.359375 38.179688 56.707031 38.179688 L 60.371094 38.179688 L 66.011719 44.226562 L 71.652344 38.179688 L 88.789062 38.179688 C 94.136719 38.179688 98.488281 33.855469 98.488281 28.542969 L 98.488281 15.058594 C 98.488281 13.820312 97.476562 12.816406 96.230469 12.816406 Z M 96.230469 12.816406 " fill-opacity="1" fill-rule="nonzero"/></g><g clip-path="url(#f72e8187de)"><path fill="#022e43" d="M 135.753906 2.460938 L 103.671875 2.460938 C 98.324219 2.460938 93.972656 6.785156 93.972656 12.097656 L 93.972656 19.789062 C 93.972656 21.03125 94.980469 22.035156 96.230469 22.035156 C 97.476562 22.035156 98.488281 21.03125 98.488281 19.789062 L 98.488281 12.097656 C 98.488281 9.257812 100.816406 6.949219 103.671875 6.949219 L 135.753906 6.949219 C 138.609375 6.949219 140.9375 9.257812 140.9375 12.097656 L 140.9375 28.542969 C 140.9375 31.382812 138.609375 33.691406 135.753906 33.691406 L 130.117188 33.691406 L 126.449219 37.621094 L 122.785156 33.691406 L 103.113281 33.691406 C 102.511719 35.339844 101.628906 36.855469 100.527344 38.179688 L 120.808594 38.179688 L 126.449219 44.226562 L 132.089844 38.179688 L 135.753906 38.179688 C 141.101562 38.179688 145.453125 33.855469 145.453125 28.542969 L 145.453125 12.097656 C 145.453125 6.785156 141.101562 2.460938 135.753906 2.460938 Z M 135.753906 2.460938 " fill-opacity="1" fill-rule="nonzero"/></g><g fill="#fc0a7a" fill-opacity="1"><g transform="translate(161.005095, 25.270958)"><g><path d="M 10.046875 0 L 9.140625 -2.453125 L 4 -2.453125 L 3.109375 0 L 0.171875 0 L 5.21875 -12.90625 L 7.859375 -12.90625 L 13.078125 0 Z M 6.5625 -9.5 L 4.890625 -4.890625 L 8.265625 -4.890625 Z M 6.5625 -9.5 "/></g></g></g><g fill="#fc0a7a" fill-opacity="1"><g transform="translate(174.242284, 25.270958)"><g><path d="M 9.65625 -12.90625 L 12.390625 -12.90625 L 12.390625 0 L 10.0625 0 L 4.21875 -8.0625 L 4.21875 0 L 1.46875 0 L 1.46875 -12.90625 L 4 -12.90625 L 9.65625 -5.03125 Z M 9.65625 -12.90625 "/></g></g></g><g fill="#fc0a7a" fill-opacity="1"><g transform="translate(188.106304, 25.270958)"><g><path d="M 10.375 -12.90625 L 10.375 -10.3125 L 6.78125 -10.3125 L 6.78125 0 L 3.984375 0 L 3.984375 -10.3125 L 0.40625 -10.3125 L 0.40625 -12.90625 Z M 10.375 -12.90625 "/></g></g></g><g fill="#fc0a7a" fill-opacity="1"><g transform="translate(198.873045, 25.270958)"><g><path d="M 4.28125 -2.59375 L 9.421875 -2.59375 L 9.421875 0 L 1.46875 0 L 1.46875 -12.90625 L 9.21875 -12.90625 L 9.21875 -10.328125 L 4.28125 -10.328125 L 4.28125 -7.78125 L 8.734375 -7.78125 L 8.734375 -5.25 L 4.28125 -5.25 Z M 4.28125 -2.59375 "/></g></g></g><g fill="#fc0a7a" fill-opacity="1"><g transform="translate(209.178882, 25.270958)"><g><path d="M 9.65625 -12.90625 L 12.390625 -12.90625 L 12.390625 0 L 10.0625 0 L 4.21875 -8.0625 L 4.21875 0 L 1.46875 0 L 1.46875 -12.90625 L 4 -12.90625 L 9.65625 -5.03125 Z M 9.65625 -12.90625 "/></g></g></g><g fill="#fc0a7a" fill-opacity="1"><g transform="translate(223.042902, 25.270958)"><g><path d="M 10.046875 0 L 9.140625 -2.453125 L 4 -2.453125 L 3.109375 0 L 0.171875 0 L 5.21875 -12.90625 L 7.859375 -12.90625 L 13.078125 0 Z M 6.5625 -9.5 L 4.890625 -4.890625 L 8.265625 -4.890625 Z M 6.5625 -9.5 "/></g></g></g><g fill="#fc0a7a" fill-opacity="1"><g transform="translate(236.280091, 25.270958)"><g><path d="M 6.359375 -12.90625 C 7.304688 -12.90625 8.175781 -12.742188 8.96875 -12.421875 C 9.769531 -12.109375 10.460938 -11.660156 11.046875 -11.078125 C 11.628906 -10.503906 12.082031 -9.828125 12.40625 -9.046875 C 12.738281 -8.265625 12.90625 -7.40625 12.90625 -6.46875 C 12.90625 -5.53125 12.738281 -4.664062 12.40625 -3.875 C 12.082031 -3.09375 11.628906 -2.410156 11.046875 -1.828125 C 10.460938 -1.242188 9.769531 -0.789062 8.96875 -0.46875 C 8.175781 -0.15625 7.304688 0 6.359375 0 L 1.46875 0 L 1.46875 -12.90625 Z M 6.28125 -2.59375 C 7.019531 -2.59375 7.671875 -2.757812 8.234375 -3.09375 C 8.804688 -3.425781 9.25 -3.882812 9.5625 -4.46875 C 9.882812 -5.050781 10.046875 -5.71875 10.046875 -6.46875 C 10.046875 -7.21875 9.882812 -7.878906 9.5625 -8.453125 C 9.25 -9.035156 8.804688 -9.488281 8.234375 -9.8125 C 7.671875 -10.144531 7.019531 -10.3125 6.28125 -10.3125 L 4.28125 -10.3125 L 4.28125 -2.59375 Z M 6.28125 -2.59375 "/></g></g></g><g fill="#fc0a7a" fill-opacity="1"><g transform="translate(249.941313, 25.270958)"><g><path d="M 10.046875 0 L 9.140625 -2.453125 L 4 -2.453125 L 3.109375 0 L 0.171875 0 L 5.21875 -12.90625 L 7.859375 -12.90625 L 13.078125 0 Z M 6.5625 -9.5 L 4.890625 -4.890625 L 8.265625 -4.890625 Z M 6.5625 -9.5 "/></g></g></g><g fill="#022e43" fill-opacity="1"><g transform="translate(161.642561, 36.105999)"><g><path d="M 2.75 -0.765625 L 1.109375 -0.765625 L 0.796875 0 L -0.046875 0 L 1.53125 -3.546875 L 2.34375 -3.546875 L 3.921875 0 L 3.0625 0 Z M 2.5 -1.375 L 1.9375 -2.734375 L 1.375 -1.375 Z M 2.5 -1.375 "/></g></g></g><g fill="#022e43" fill-opacity="1"><g transform="translate(166.056526, 36.105999)"><g/></g></g><g fill="#022e43" fill-opacity="1"><g transform="translate(168.025832, 36.105999)"><g><path d="M 2.75 -0.765625 L 1.109375 -0.765625 L 0.796875 0 L -0.046875 0 L 1.53125 -3.546875 L 2.34375 -3.546875 L 3.921875 0 L 3.0625 0 Z M 2.5 -1.375 L 1.9375 -2.734375 L 1.375 -1.375 Z M 2.5 -1.375 "/></g></g></g><g fill="#022e43" fill-opacity="1"><g transform="translate(172.439798, 36.105999)"><g><path d="M 2.8125 -1.828125 L 3.5625 -1.828125 L 3.5625 -0.390625 C 3.375 -0.242188 3.148438 -0.128906 2.890625 -0.046875 C 2.640625 0.0234375 2.382812 0.0625 2.125 0.0625 C 1.757812 0.0625 1.429688 -0.015625 1.140625 -0.171875 C 0.847656 -0.328125 0.617188 -0.546875 0.453125 -0.828125 C 0.285156 -1.109375 0.203125 -1.421875 0.203125 -1.765625 C 0.203125 -2.117188 0.285156 -2.4375 0.453125 -2.71875 C 0.617188 -3 0.847656 -3.21875 1.140625 -3.375 C 1.441406 -3.53125 1.773438 -3.609375 2.140625 -3.609375 C 2.453125 -3.609375 2.734375 -3.554688 2.984375 -3.453125 C 3.242188 -3.347656 3.457031 -3.191406 3.625 -2.984375 L 3.109375 -2.5 C 2.847656 -2.769531 2.539062 -2.90625 2.1875 -2.90625 C 1.957031 -2.90625 1.753906 -2.859375 1.578125 -2.765625 C 1.410156 -2.671875 1.273438 -2.535156 1.171875 -2.359375 C 1.078125 -2.191406 1.03125 -1.992188 1.03125 -1.765625 C 1.03125 -1.546875 1.078125 -1.347656 1.171875 -1.171875 C 1.273438 -1.003906 1.410156 -0.875 1.578125 -0.78125 C 1.753906 -0.6875 1.953125 -0.640625 2.171875 -0.640625 C 2.410156 -0.640625 2.625 -0.691406 2.8125 -0.796875 Z M 2.8125 -1.828125 "/></g></g></g><g fill="#022e43" fill-opacity="1"><g transform="translate(176.87907, 36.105999)"><g><path d="M 3.171875 -0.65625 L 3.171875 0 L 0.421875 0 L 0.421875 -3.546875 L 3.09375 -3.546875 L 3.09375 -2.890625 L 1.234375 -2.890625 L 1.234375 -2.109375 L 2.875 -2.109375 L 2.875 -1.484375 L 1.234375 -1.484375 L 1.234375 -0.65625 Z M 3.171875 -0.65625 "/></g></g></g><g fill="#022e43" fill-opacity="1"><g transform="translate(180.812202, 36.105999)"><g><path d="M 3.671875 -3.546875 L 3.671875 0 L 3 0 L 1.234375 -2.15625 L 1.234375 0 L 0.421875 0 L 0.421875 -3.546875 L 1.09375 -3.546875 L 2.859375 -1.390625 L 2.859375 -3.546875 Z M 3.671875 -3.546875 "/></g></g></g><g fill="#022e43" fill-opacity="1"><g transform="translate(185.438749, 36.105999)"><g><path d="M 0.421875 -3.546875 L 2.03125 -3.546875 C 2.414062 -3.546875 2.753906 -3.472656 3.046875 -3.328125 C 3.347656 -3.179688 3.578125 -2.972656 3.734375 -2.703125 C 3.898438 -2.429688 3.984375 -2.117188 3.984375 -1.765625 C 3.984375 -1.410156 3.898438 -1.097656 3.734375 -0.828125 C 3.578125 -0.566406 3.347656 -0.363281 3.046875 -0.21875 C 2.753906 -0.0703125 2.414062 0 2.03125 0 L 0.421875 0 Z M 1.984375 -0.671875 C 2.335938 -0.671875 2.617188 -0.769531 2.828125 -0.96875 C 3.046875 -1.164062 3.15625 -1.429688 3.15625 -1.765625 C 3.15625 -2.109375 3.046875 -2.378906 2.828125 -2.578125 C 2.617188 -2.773438 2.335938 -2.875 1.984375 -2.875 L 1.234375 -2.875 L 1.234375 -0.671875 Z M 1.984375 -0.671875 "/></g></g></g><g fill="#022e43" fill-opacity="1"><g transform="translate(190.1564, 36.105999)"><g><path d="M 2.75 -0.765625 L 1.109375 -0.765625 L 0.796875 0 L -0.046875 0 L 1.53125 -3.546875 L 2.34375 -3.546875 L 3.921875 0 L 3.0625 0 Z M 2.5 -1.375 L 1.9375 -2.734375 L 1.375 -1.375 Z M 2.5 -1.375 "/></g></g></g><g fill="#022e43" fill-opacity="1"><g transform="translate(194.570367, 36.105999)"><g/></g></g><g fill="#022e43" fill-opacity="1"><g transform="translate(196.539673, 36.105999)"><g><path d="M 0.421875 -3.546875 L 2.03125 -3.546875 C 2.414062 -3.546875 2.753906 -3.472656 3.046875 -3.328125 C 3.347656 -3.179688 3.578125 -2.972656 3.734375 -2.703125 C 3.898438 -2.429688 3.984375 -2.117188 3.984375 -1.765625 C 3.984375 -1.410156 3.898438 -1.097656 3.734375 -0.828125 C 3.578125 -0.566406 3.347656 -0.363281 3.046875 -0.21875 C 2.753906 -0.0703125 2.414062 0 2.03125 0 L 0.421875 0 Z M 1.984375 -0.671875 C 2.335938 -0.671875 2.617188 -0.769531 2.828125 -0.96875 C 3.046875 -1.164062 3.15625 -1.429688 3.15625 -1.765625 C 3.15625 -2.109375 3.046875 -2.378906 2.828125 -2.578125 C 2.617188 -2.773438 2.335938 -2.875 1.984375 -2.875 L 1.234375 -2.875 L 1.234375 -0.671875 Z M 1.984375 -0.671875 "/></g></g></g><g fill="#022e43" fill-opacity="1"><g transform="translate(201.257325, 36.105999)"><g><path d="M 2.75 -0.765625 L 1.109375 -0.765625 L 0.796875 0 L -0.046875 0 L 1.53125 -3.546875 L 2.34375 -3.546875 L 3.921875 0 L 3.0625 0 Z M 2.5 -1.375 L 1.9375 -2.734375 L 1.375 -1.375 Z M 2.5 -1.375 "/></g></g></g><g fill="#022e43" fill-opacity="1"><g transform="translate(205.671292, 36.105999)"><g/></g></g><g fill="#022e43" fill-opacity="1"><g transform="translate(207.640598, 36.105999)"><g><path d="M 1.953125 -3.546875 C 2.265625 -3.546875 2.535156 -3.492188 2.765625 -3.390625 C 3.003906 -3.285156 3.1875 -3.132812 3.3125 -2.9375 C 3.4375 -2.75 3.5 -2.523438 3.5 -2.265625 C 3.5 -2.003906 3.4375 -1.773438 3.3125 -1.578125 C 3.1875 -1.378906 3.003906 -1.226562 2.765625 -1.125 C 2.535156 -1.03125 2.265625 -0.984375 1.953125 -0.984375 L 1.234375 -0.984375 L 1.234375 0 L 0.421875 0 L 0.421875 -3.546875 Z M 1.90625 -1.640625 C 2.15625 -1.640625 2.34375 -1.691406 2.46875 -1.796875 C 2.59375 -1.910156 2.65625 -2.066406 2.65625 -2.265625 C 2.65625 -2.460938 2.59375 -2.613281 2.46875 -2.71875 C 2.34375 -2.820312 2.15625 -2.875 1.90625 -2.875 L 1.234375 -2.875 L 1.234375 -1.640625 Z M 1.90625 -1.640625 "/></g></g></g><g fill="#022e43" fill-opacity="1"><g transform="translate(211.882478, 36.105999)"><g><path d="M 3.171875 -0.65625 L 3.171875 0 L 0.421875 0 L 0.421875 -3.546875 L 3.09375 -3.546875 L 3.09375 -2.890625 L 1.234375 -2.890625 L 1.234375 -2.109375 L 2.875 -2.109375 L 2.875 -1.484375 L 1.234375 -1.484375 L 1.234375 -0.65625 Z M 3.171875 -0.65625 "/></g></g></g><g fill="#022e43" fill-opacity="1"><g transform="translate(215.815609, 36.105999)"><g><path d="M 2.671875 0 L 2 -0.984375 L 1.234375 -0.984375 L 1.234375 0 L 0.421875 0 L 0.421875 -3.546875 L 1.953125 -3.546875 C 2.265625 -3.546875 2.535156 -3.492188 2.765625 -3.390625 C 3.003906 -3.285156 3.1875 -3.132812 3.3125 -2.9375 C 3.4375 -2.75 3.5 -2.523438 3.5 -2.265625 C 3.5 -1.992188 3.429688 -1.765625 3.296875 -1.578125 C 3.171875 -1.390625 2.992188 -1.242188 2.765625 -1.140625 L 3.5625 0 Z M 2.65625 -2.265625 C 2.65625 -2.460938 2.59375 -2.613281 2.46875 -2.71875 C 2.34375 -2.820312 2.15625 -2.875 1.90625 -2.875 L 1.234375 -2.875 L 1.234375 -1.640625 L 1.90625 -1.640625 C 2.15625 -1.640625 2.34375 -1.691406 2.46875 -1.796875 C 2.59375 -1.910156 2.65625 -2.066406 2.65625 -2.265625 Z M 2.65625 -2.265625 "/></g></g></g><g fill="#022e43" fill-opacity="1"><g transform="translate(220.07267, 36.105999)"><g><path d="M 3.671875 -3.546875 L 3.671875 0 L 3 0 L 1.234375 -2.15625 L 1.234375 0 L 0.421875 0 L 0.421875 -3.546875 L 1.09375 -3.546875 L 2.859375 -1.390625 L 2.859375 -3.546875 Z M 3.671875 -3.546875 "/></g></g></g><g fill="#022e43" fill-opacity="1"><g transform="translate(224.699218, 36.105999)"><g><path d="M 2.75 -0.765625 L 1.109375 -0.765625 L 0.796875 0 L -0.046875 0 L 1.53125 -3.546875 L 2.34375 -3.546875 L 3.921875 0 L 3.0625 0 Z M 2.5 -1.375 L 1.9375 -2.734375 L 1.375 -1.375 Z M 2.5 -1.375 "/></g></g></g><g fill="#022e43" fill-opacity="1"><g transform="translate(229.113182, 36.105999)"><g><path d="M 3.640625 0 L 3.640625 -2.125 L 2.59375 -0.375 L 2.234375 -0.375 L 1.1875 -2.078125 L 1.1875 0 L 0.421875 0 L 0.421875 -3.546875 L 1.09375 -3.546875 L 2.421875 -1.34375 L 3.734375 -3.546875 L 4.40625 -3.546875 L 4.421875 0 Z M 3.640625 0 "/></g></g></g><g fill="#022e43" fill-opacity="1"><g transform="translate(234.483757, 36.105999)"><g><path d="M 3.015625 -1.84375 C 3.222656 -1.78125 3.382812 -1.671875 3.5 -1.515625 C 3.613281 -1.367188 3.671875 -1.1875 3.671875 -0.96875 C 3.671875 -0.65625 3.550781 -0.414062 3.3125 -0.25 C 3.070312 -0.0820312 2.71875 0 2.25 0 L 0.421875 0 L 0.421875 -3.546875 L 2.15625 -3.546875 C 2.582031 -3.546875 2.910156 -3.460938 3.140625 -3.296875 C 3.378906 -3.128906 3.5 -2.90625 3.5 -2.625 C 3.5 -2.445312 3.457031 -2.289062 3.375 -2.15625 C 3.289062 -2.019531 3.171875 -1.914062 3.015625 -1.84375 Z M 1.234375 -2.921875 L 1.234375 -2.09375 L 2.046875 -2.09375 C 2.253906 -2.09375 2.410156 -2.125 2.515625 -2.1875 C 2.617188 -2.257812 2.671875 -2.367188 2.671875 -2.515625 C 2.671875 -2.648438 2.617188 -2.75 2.515625 -2.8125 C 2.410156 -2.882812 2.253906 -2.921875 2.046875 -2.921875 Z M 2.1875 -0.625 C 2.40625 -0.625 2.566406 -0.65625 2.671875 -0.71875 C 2.785156 -0.789062 2.84375 -0.898438 2.84375 -1.046875 C 2.84375 -1.347656 2.625 -1.5 2.1875 -1.5 L 1.234375 -1.5 L 1.234375 -0.625 Z M 2.1875 -0.625 "/></g></g></g><g fill="#022e43" fill-opacity="1"><g transform="translate(238.892665, 36.105999)"><g><path d="M 2 0.0625 C 1.488281 0.0625 1.09375 -0.078125 0.8125 -0.359375 C 0.53125 -0.640625 0.390625 -1.039062 0.390625 -1.5625 L 0.390625 -3.546875 L 1.203125 -3.546875 L 1.203125 -1.59375 C 1.203125 -0.957031 1.46875 -0.640625 2 -0.640625 C 2.257812 -0.640625 2.457031 -0.710938 2.59375 -0.859375 C 2.726562 -1.015625 2.796875 -1.257812 2.796875 -1.59375 L 2.796875 -3.546875 L 3.59375 -3.546875 L 3.59375 -1.5625 C 3.59375 -1.039062 3.453125 -0.640625 3.171875 -0.359375 C 2.890625 -0.078125 2.5 0.0625 2 0.0625 Z M 2 0.0625 "/></g></g></g><g fill="#022e43" fill-opacity="1"><g transform="translate(243.41798, 36.105999)"><g><path d="M 2.109375 0.0625 C 1.753906 0.0625 1.429688 -0.015625 1.140625 -0.171875 C 0.847656 -0.328125 0.617188 -0.546875 0.453125 -0.828125 C 0.285156 -1.109375 0.203125 -1.421875 0.203125 -1.765625 C 0.203125 -2.117188 0.285156 -2.4375 0.453125 -2.71875 C 0.617188 -3 0.847656 -3.21875 1.140625 -3.375 C 1.429688 -3.53125 1.757812 -3.609375 2.125 -3.609375 C 2.425781 -3.609375 2.703125 -3.550781 2.953125 -3.4375 C 3.203125 -3.332031 3.410156 -3.179688 3.578125 -2.984375 L 3.046875 -2.484375 C 2.804688 -2.765625 2.507812 -2.90625 2.15625 -2.90625 C 1.9375 -2.90625 1.738281 -2.859375 1.5625 -2.765625 C 1.394531 -2.671875 1.265625 -2.535156 1.171875 -2.359375 C 1.078125 -2.179688 1.03125 -1.984375 1.03125 -1.765625 C 1.03125 -1.546875 1.078125 -1.347656 1.171875 -1.171875 C 1.265625 -1.003906 1.394531 -0.875 1.5625 -0.78125 C 1.738281 -0.6875 1.9375 -0.640625 2.15625 -0.640625 C 2.507812 -0.640625 2.804688 -0.78125 3.046875 -1.0625 L 3.578125 -0.578125 C 3.410156 -0.367188 3.203125 -0.207031 2.953125 -0.09375 C 2.703125 0.0078125 2.421875 0.0625 2.109375 0.0625 Z M 2.109375 0.0625 "/></g></g></g><g fill="#022e43" fill-opacity="1"><g transform="translate(247.664923, 36.105999)"><g><path d="M 2.75 -0.765625 L 1.109375 -0.765625 L 0.796875 0 L -0.046875 0 L 1.53125 -3.546875 L 2.34375 -3.546875 L 3.921875 0 L 3.0625 0 Z M 2.5 -1.375 L 1.9375 -2.734375 L 1.375 -1.375 Z M 2.5 -1.375 "/></g></g></g><g fill="#022e43" fill-opacity="1"><g transform="translate(252.078887, 36.105999)"><g><path d="M 3.671875 -3.546875 L 3.671875 0 L 3 0 L 1.234375 -2.15625 L 1.234375 0 L 0.421875 0 L 0.421875 -3.546875 L 1.09375 -3.546875 L 2.859375 -1.390625 L 2.859375 -3.546875 Z M 3.671875 -3.546875 "/></g></g></g><g fill="#022e43" fill-opacity="1"><g transform="translate(256.705435, 36.105999)"><g><path d="M 2.75 -0.765625 L 1.109375 -0.765625 L 0.796875 0 L -0.046875 0 L 1.53125 -3.546875 L 2.34375 -3.546875 L 3.921875 0 L 3.0625 0 Z M 2.5 -1.375 L 1.9375 -2.734375 L 1.375 -1.375 Z M 2.5 -1.375 "/></g></g></g></svg>